<?xml version="1.0" standalone="no"?>
<!DOCTYPE svg PUBLIC "-//W3C//DTD SVG 20010904//EN"
 "http://www.w3.org/TR/2001/REC-SVG-20010904/DTD/svg10.dtd">
<svg version="1.0" xmlns="http://www.w3.org/2000/svg"
 width="700.000000pt" height="700.000000pt" viewBox="0 0 700.000000 700.000000"
 preserveAspectRatio="xMidYMid meet">
<metadata>
Created by potrace 1.11, written by Peter Selinger 2001-2013
</metadata>
<g transform="translate(0.000000,700.000000) scale(0.100000,-0.100000)"
fill="#000000" stroke="none">
<path d="M3467 6718 c-15 -29 -46 -89 -70 -133 -24 -44 -69 -129 -101 -190
-32 -60 -73 -137 -91 -170 -52 -95 -96 -177 -113 -210 -8 -16 -80 -150 -159
-298 -79 -147 -143 -269 -143 -272 0 -2 -15 -30 -33 -62 -19 -32 -60 -107 -92
-168 -31 -60 -76 -144 -99 -185 -51 -94 -99 -184 -122 -230 -20 -38 -130 -245
-174 -325 -15 -27 -53 -99 -85 -160 -32 -60 -70 -132 -85 -160 -15 -27 -45
-84 -67 -125 -22 -41 -58 -109 -80 -150 -22 -41 -66 -124 -98 -185 -32 -60
-61 -114 -65 -120 -4 -5 -33 -59 -65 -120 -112 -213 -148 -280 -175 -330 -33
-61 -39 -71 -385 -720 -327 -612 -353 -661 -395 -740 -18 -33 -55 -103 -82
-155 -28 -52 -63 -117 -78 -145 -15 -27 -49 -90 -75 -140 -77 -145 -126 -237
-155 -290 -15 -27 -51 -95 -80 -150 -29 -55 -83 -156 -120 -225 -37 -69 -93
-173 -124 -231 l-56 -106 3500 0 3500 0 -38 71 c-21 39 -44 81 -50 93 -17 32
-31 59 -65 123 -16 30 -50 93 -75 140 -24 47 -94 177 -155 290 -138 258 -173
323 -232 435 -26 50 -63 119 -83 155 -19 36 -51 97 -72 135 -21 39 -53 99 -72
135 -19 36 -61 115 -93 175 -32 61 -61 115 -65 120 -4 6 -40 73 -80 150 -40
77 -80 154 -90 170 -10 17 -46 84 -80 150 -35 66 -66 125 -70 130 -4 6 -36 64
-70 130 -35 66 -75 143 -90 170 -15 28 -49 91 -75 140 -26 50 -60 113 -75 140
-15 28 -56 104 -90 170 -35 66 -71 134 -80 150 -10 17 -43 80 -75 140 -32 61
-66 124 -75 140 -10 17 -46 84 -80 150 -35 66 -73 139 -86 163 -13 23 -47 86
-75 140 -29 53 -76 141 -106 195 -29 53 -53 99 -53 101 0 1 -22 43 -48 92 -76
139 -530 990 -652 1219 -20 39 -59 111 -85 160 -26 50 -60 113 -75 140 -15 28
-56 104 -91 170 -35 66 -80 152 -101 190 -22 39 -51 94 -65 123 -15 28 -30 52
-33 52 -4 0 -19 -24 -33 -52z"/>
</g>
</svg>
