<?xml version="1.0" standalone="no"?>
<!DOCTYPE svg PUBLIC "-//W3C//DTD SVG 20010904//EN"
 "http://www.w3.org/TR/2001/REC-SVG-20010904/DTD/svg10.dtd">
<svg version="1.0" xmlns="http://www.w3.org/2000/svg"
 width="704.000000pt" height="704.000000pt" viewBox="0 0 704.000000 704.000000"
 preserveAspectRatio="xMidYMid meet">
<metadata>
Created by potrace 1.11, written by Peter Selinger 2001-2013
</metadata>
<g transform="translate(0.000000,704.000000) scale(0.100000,-0.100000)"
fill="#000000" stroke="none">
<path d="M3429 6243 c-46 -82 -87 -152 -92 -158 -4 -5 -16 -25 -25 -43 -9 -18
-55 -98 -102 -179 -47 -81 -94 -163 -105 -182 -29 -52 -183 -318 -217 -374
-15 -26 -28 -52 -28 -57 0 -6 -4 -10 -8 -10 -4 0 -13 -12 -20 -27 -7 -16 -23
-46 -36 -68 -52 -89 -170 -292 -190 -328 -19 -33 -190 -330 -255 -441 -13 -23
-33 -57 -44 -76 -11 -19 -28 -48 -38 -65 -10 -16 -30 -52 -45 -80 -14 -27 -35
-62 -45 -77 -11 -14 -19 -31 -19 -37 0 -6 -5 -11 -10 -11 -6 0 -9 -3 -8 -7 2
-5 -23 -51 -54 -103 -30 -52 -72 -124 -92 -160 -21 -36 -46 -81 -58 -100 -25
-43 -198 -341 -226 -390 -11 -19 -44 -78 -74 -130 -30 -52 -102 -176 -158
-275 -57 -99 -109 -183 -114 -187 -6 -4 -8 -8 -3 -8 6 0 -19 -46 -33 -60 -3
-3 -13 -21 -22 -40 -19 -39 -50 -92 -58 -100 -3 -3 -11 -16 -18 -30 -6 -14
-16 -32 -21 -40 -39 -60 -291 -503 -291 -511 0 -5 -3 -9 -7 -9 -5 0 -17 -19
-28 -43 -11 -23 -23 -44 -26 -47 -4 -3 -19 -30 -35 -60 -15 -30 -31 -57 -34
-60 -4 -3 -24 -36 -45 -75 -21 -38 -41 -72 -44 -75 -3 -3 -14 -21 -23 -40 -10
-19 -30 -56 -45 -82 -38 -64 -268 -463 -296 -513 -12 -22 -25 -41 -29 -43 -5
-2 -8 -8 -8 -13 0 -4 -23 -46 -50 -93 -28 -47 -50 -87 -50 -90 0 -3 1494 -6
3321 -6 1826 0 3319 3 3317 8 -2 4 -10 21 -18 37 -8 17 -17 32 -20 35 -3 3
-11 16 -18 29 -31 54 -58 102 -111 194 -10 17 -32 56 -50 85 -17 29 -31 57
-31 62 0 6 -4 10 -10 10 -5 0 -10 4 -10 9 0 4 -23 48 -51 97 -29 49 -63 109
-77 134 -14 25 -33 57 -43 72 -11 14 -19 31 -19 36 0 6 -6 17 -12 24 -7 8 -21
29 -32 48 -22 42 -35 65 -111 195 -169 291 -275 478 -275 486 0 5 -3 9 -7 9
-5 0 -21 26 -38 58 -16 31 -32 59 -35 62 -5 5 -15 22 -51 88 -11 20 -30 53
-41 72 -18 31 -33 57 -82 144 -6 11 -15 25 -19 30 -5 6 -89 153 -189 326 -99
173 -201 351 -227 395 -26 44 -50 87 -54 95 -4 8 -16 29 -27 45 -11 17 -25 41
-32 55 -7 14 -36 65 -65 113 -29 48 -53 90 -53 92 0 3 -18 34 -40 70 -22 36
-40 70 -40 75 0 6 -4 10 -10 10 -5 0 -10 4 -10 9 0 9 -53 106 -88 161 -9 14
-17 27 -17 30 0 3 -26 49 -58 102 -31 54 -83 142 -115 195 -31 54 -64 112 -72
128 -8 17 -17 32 -21 35 -4 3 -15 22 -25 42 -11 20 -68 122 -128 225 -60 103
-120 208 -134 233 -13 24 -32 57 -43 71 -10 15 -19 32 -19 37 0 6 -3 12 -7 14
-5 2 -16 18 -25 36 -10 17 -26 47 -35 65 -10 17 -21 34 -25 35 -5 2 -8 8 -8
13 0 6 -23 49 -51 97 -29 48 -62 106 -75 129 -13 23 -53 92 -89 153 -36 61
-65 115 -65 121 0 5 -4 9 -10 9 -5 0 -10 6 -10 13 -1 6 -23 48 -50 92 -28 44
-55 91 -61 105 -5 13 -13 27 -17 30 -7 5 -47 75 -66 117 -6 13 -14 23 -18 23
-5 0 -8 4 -8 9 0 13 -63 121 -71 121 -3 0 -44 -66 -90 -147z"/>
</g>
</svg>
